<svg width="70" height="36" viewBox="0 0 70 36" fill="none" xmlns="http://www.w3.org/2000/svg">
<path d="M7.70115 5.29934C7.75315 5.26603 7.79647 5.23273 7.83114 5.19942C7.88312 5.16611 7.94379 5.14114 8.01311 5.12448C8.09976 5.15779 8.18641 5.19942 8.27306 5.24938C8.35972 5.29934 8.44637 5.34097 8.53302 5.37427C8.82764 5.65738 9.07027 6.02374 9.2609 6.47337C9.34755 6.65656 9.46887 6.82308 9.62484 6.97296C9.79816 7.12283 9.93685 7.29769 10.0408 7.49753C10.1101 7.63075 10.1794 7.74732 10.2488 7.84724C10.3181 7.94716 10.3961 8.06373 10.4827 8.19695C10.76 8.56331 11.02 8.96299 11.2626 9.39597C11.5225 9.82894 11.7825 10.237 12.0425 10.62C12.2851 11.0363 12.5191 11.4526 12.7443 11.8689C12.987 12.2686 13.2383 12.6766 13.4983 13.0929C13.4983 13.1762 13.5329 13.2678 13.6022 13.3677C13.6195 13.6341 13.6195 13.8007 13.6022 13.8673C13.6715 13.9838 13.7582 14.0754 13.8622 14.142C13.9834 14.2086 14.0875 14.2836 14.1741 14.3668C14.1915 14.5001 14.1654 14.625 14.0961 14.7415C14.0442 14.8415 14.0095 14.9581 13.9921 15.0913C13.7668 15.4576 13.5242 15.8323 13.2643 16.2153C13.1256 16.3986 12.9956 16.59 12.8743 16.7899C12.7704 16.9897 12.649 17.1812 12.5104 17.3644C12.4237 17.5476 12.3544 17.6892 12.3025 17.789C12.2504 17.8723 12.2071 17.9556 12.1724 18.0388C11.9991 18.2221 11.8778 18.4302 11.8085 18.6633C11.7392 18.8798 11.6092 19.0796 11.4186 19.2628C11.4532 19.4626 11.5832 19.6792 11.8085 19.9124C12.0511 20.1288 12.2504 20.3036 12.4064 20.4369C12.4584 20.5368 12.5191 20.6284 12.5884 20.7116C12.6577 20.7782 12.727 20.8532 12.7963 20.9365C12.831 20.9698 12.8657 21.0031 12.9003 21.0364C12.9523 21.0697 13.0043 21.103 13.0563 21.1363C13.0736 21.2529 13.1169 21.3528 13.1862 21.4361C13.2729 21.5027 13.3682 21.5526 13.4722 21.586C13.5416 21.7691 13.6022 21.8857 13.6542 21.9356C13.7236 21.969 13.7582 22.0106 13.7582 22.0605C13.7582 22.1438 13.7408 22.2354 13.7062 22.3353C13.6022 22.4519 13.4896 22.5768 13.3682 22.71C13.247 22.8266 13.1169 22.9265 12.9783 23.0098C12.9263 23.1097 12.8657 23.2346 12.7963 23.3845C12.7443 23.5177 12.675 23.6509 12.5884 23.7842C12.5191 23.934 12.4411 24.0672 12.3544 24.1838C12.2677 24.3004 12.1811 24.3753 12.0944 24.4086C11.8691 24.292 11.7566 24.1755 11.7566 24.0589C11.7045 24.0422 11.6178 23.9756 11.4966 23.8591C11.3925 23.7591 11.3406 23.6925 11.3406 23.6592C10.9073 23.426 10.5607 23.118 10.3007 22.7349C10.2488 22.7017 10.1967 22.6767 10.1448 22.66C10.1101 22.6268 10.0668 22.6017 10.0148 22.5851C9.98013 22.5019 9.92817 22.4435 9.85881 22.4103C9.80681 22.3603 9.76349 22.2937 9.72883 22.2104C9.67684 22.1771 9.60752 22.2187 9.52087 22.3353C9.43421 22.4519 9.3389 22.5851 9.23491 22.7349C9.14826 22.8848 9.07027 23.0348 9.00095 23.1847C8.93163 23.3179 8.8883 23.4011 8.87097 23.4344C8.76699 23.5177 8.663 23.6009 8.55902 23.6842C8.47237 23.7842 8.37705 23.8757 8.27306 23.9589C8.06509 24.1088 7.91779 24.2171 7.83114 24.2837C7.76182 24.3503 7.70982 24.4502 7.67517 24.5834C7.51918 24.65 7.42387 24.6917 7.38921 24.7084C7.35455 24.725 7.31988 24.7333 7.28523 24.7333C7.19857 24.7333 7.09459 24.6751 6.97327 24.5585C6.86929 24.4586 6.78264 24.3836 6.71332 24.3336C6.62666 24.317 6.53134 24.3004 6.42736 24.2837C6.34071 24.267 6.26272 24.2171 6.1934 24.1338C6.08942 23.9506 6.01143 23.8007 5.95944 23.6842C5.92477 23.551 5.83812 23.4594 5.69948 23.4095C5.69948 23.3262 5.67348 23.2678 5.62149 23.2346C5.58683 23.2012 5.54351 23.1513 5.49151 23.0847C5.35287 22.9015 5.22289 22.685 5.10157 22.4352C4.99759 22.1855 4.87628 21.9523 4.73763 21.7358C4.59899 21.536 4.44301 21.3362 4.2697 21.1363C4.0964 20.9365 3.93176 20.745 3.77579 20.5618C3.72379 20.4952 3.66314 20.4286 3.59382 20.362C3.54182 20.2954 3.48984 20.2287 3.43784 20.1621C3.33385 19.979 3.22121 19.8041 3.0999 19.6375C2.99591 19.4544 2.88326 19.2795 2.76195 19.113C2.72729 19.063 2.68397 19.0214 2.63197 18.9881C2.59731 18.9381 2.56265 18.8798 2.52799 18.8132C2.424 18.68 2.33735 18.5467 2.26803 18.4135C2.19871 18.2803 2.12072 18.1388 2.03407 17.9889C1.89542 17.7058 1.73078 17.4477 1.54015 17.2145C1.36684 16.9647 1.21086 16.7066 1.07222 16.4402C0.933578 16.1404 0.794934 15.874 0.65629 15.6409C0.517645 15.391 0.396331 15.1496 0.292348 14.9164C0.292348 14.8665 0.283683 14.8165 0.266352 14.7665C0.266352 14.7166 0.257687 14.6583 0.240356 14.5916C0.327009 14.3752 0.387666 14.2253 0.422327 14.142C0.474318 14.0588 0.500315 13.9756 0.500315 13.8923C0.534976 13.8423 0.569636 13.7924 0.604297 13.7424C0.65629 13.6757 0.69095 13.6008 0.708281 13.5176C1.12421 12.9847 1.50548 12.4352 1.8521 11.8689C2.21604 11.3028 2.57998 10.7449 2.94392 10.1953C3.34252 9.62914 3.70646 9.06291 4.03575 8.49671C4.38236 7.91386 4.7463 7.34765 5.12757 6.7981C5.12757 6.69818 5.1449 6.63157 5.17957 6.59826C5.23155 6.54831 5.25755 6.49003 5.25755 6.42341C5.3442 6.34014 5.42219 6.24023 5.49151 6.12366C5.56083 6.00709 5.61283 5.89051 5.64748 5.77395C5.69948 5.69069 5.75147 5.60742 5.80346 5.52415C5.87278 5.44088 5.92477 5.34929 5.95944 5.24938C6.02876 5.19942 6.08075 5.14114 6.11541 5.07453C6.1674 5.00791 6.21939 4.9413 6.27139 4.87469C6.35804 4.84138 6.41869 4.79975 6.45336 4.74979C6.48801 4.69983 6.57467 4.67485 6.71332 4.67485C6.7653 4.67485 6.80863 4.68318 6.8433 4.69983C6.89529 4.69983 6.94727 4.69151 6.99927 4.67485C7.08592 4.70816 7.14658 4.75811 7.18124 4.82472C7.23323 4.89134 7.31121 4.93297 7.4152 4.94963C7.44986 5.03289 7.49318 5.0995 7.54518 5.14946C7.6145 5.18276 7.6665 5.23273 7.70115 5.29934ZM9.05294 11.794C8.89696 11.5608 8.74966 11.336 8.61101 11.1195C8.4897 10.8864 8.34238 10.6699 8.16908 10.4701C8.15175 10.4201 8.10843 10.3452 8.03911 10.2453C7.98711 10.1287 7.91779 10.0204 7.83114 9.92055C7.76182 9.82061 7.68382 9.72899 7.59717 9.64572C7.51052 9.56245 7.4412 9.52086 7.38921 9.52086C7.26789 9.60413 7.15524 9.67907 7.05126 9.74567C6.98194 9.94547 6.88662 10.1454 6.7653 10.3452C6.644 10.5451 6.52268 10.7365 6.40136 10.9197C6.28006 11.0529 6.1674 11.1778 6.06342 11.2944C5.97677 11.3943 5.90745 11.5359 5.85545 11.719C5.7688 11.8023 5.69081 11.8856 5.62149 11.9689C5.5695 12.0355 5.50884 12.1104 5.43952 12.1937C5.38753 12.3602 5.29221 12.5433 5.15357 12.7432C5.03225 12.943 4.90228 13.1428 4.76363 13.3427C4.62499 13.5425 4.48634 13.7424 4.3477 13.9422C4.20905 14.142 4.08773 14.3252 3.98375 14.4918C3.86244 14.6417 3.79312 14.7499 3.77579 14.8165C3.77579 14.8832 3.76712 14.9498 3.74979 15.0164C3.83644 15.2495 3.95776 15.466 4.11373 15.6658C4.2697 15.8657 4.40835 16.0738 4.52967 16.2903C4.66831 16.5234 4.78963 16.7482 4.89361 16.9647C4.99759 17.1812 5.1449 17.3811 5.33554 17.5642C5.64748 17.9472 5.93344 18.3553 6.1934 18.7882C6.47069 19.2046 6.7913 19.5793 7.15524 19.9124C7.27656 19.8124 7.35455 19.6874 7.38921 19.5376C7.51052 19.4044 7.62317 19.2628 7.72715 19.113C7.83114 18.9631 7.92646 18.8216 8.01311 18.6884C8.08243 18.5218 8.16908 18.3553 8.27306 18.1887C8.42904 17.9556 8.58502 17.7391 8.74099 17.5393C8.91429 17.3228 9.05294 17.098 9.15692 16.8649C9.2609 16.7316 9.34755 16.5984 9.41688 16.4652C9.4862 16.3153 9.59019 16.1821 9.72883 16.0655C9.76349 15.8657 9.83281 15.6991 9.93685 15.5659C10.0581 15.416 10.1708 15.2662 10.2747 15.1163C10.3094 14.9997 10.3527 14.8997 10.4048 14.8165C10.4567 14.7333 10.5087 14.6417 10.5607 14.5417C10.4394 14.2086 10.2834 13.8923 10.0928 13.5926C9.91949 13.2761 9.73749 12.968 9.54686 12.6683C9.49487 12.5517 9.44287 12.4352 9.39089 12.3185C9.3389 12.202 9.27824 12.1021 9.20892 12.0188L9.05294 11.794ZM16.3288 12.7155C16.4367 12.7747 16.5137 12.8561 16.5599 12.9597C16.6215 13.0485 16.7063 13.1152 16.8141 13.1595C16.9066 13.2039 17.0066 13.2261 17.1145 13.2261C17.2224 13.2261 17.3147 13.241 17.3918 13.2705C17.4535 13.3002 17.4996 13.3371 17.5305 13.3816C17.5612 13.426 17.5921 13.4704 17.6228 13.5148C17.7153 13.5889 17.8539 13.6555 18.0388 13.7147C18.239 13.7739 18.3701 13.8405 18.4317 13.9145C18.5395 14.0477 18.6166 14.2179 18.6627 14.4252C18.7243 14.6324 18.7705 14.8544 18.8014 15.0913C18.8322 15.3134 18.8552 15.5427 18.8707 15.7796C18.8861 16.0016 18.9092 16.1941 18.94 16.3569C18.9708 16.6974 19.0093 17.0378 19.0556 17.3783C19.1017 17.7039 19.1249 18.037 19.1249 18.3774C19.1249 18.7179 19.1095 19.0658 19.0786 19.421C19.0479 19.7763 19.0324 20.1242 19.0324 20.4647C19.0324 20.6423 19.0247 20.8643 19.0093 21.1308C19.0093 21.3972 18.9477 21.6044 18.8245 21.7524C18.8091 21.8116 18.8014 21.9153 18.8014 22.0634V22.7739C18.8014 22.8626 18.8091 22.9515 18.8245 23.0403C18.8399 23.1291 18.8476 23.2253 18.8476 23.3289C18.8476 23.4918 18.8014 23.6102 18.7089 23.6842C18.6627 23.6694 18.6088 23.662 18.5471 23.662C18.501 23.662 18.4548 23.662 18.4085 23.662C18.239 23.662 18.1158 23.6916 18.0388 23.7508C17.8693 23.736 17.7076 23.7212 17.5535 23.7064C17.3995 23.6916 17.2377 23.6842 17.0683 23.6842C16.8064 23.6842 16.5215 23.7212 16.2134 23.7952C16.1518 23.6472 16.1209 23.4918 16.1209 23.3289C16.1363 23.1661 16.1055 23.0181 16.0285 22.8848C16.013 22.8405 15.9977 22.8034 15.9823 22.7739C15.9823 22.7294 15.9823 22.685 15.9823 22.6406C16.0285 22.463 16.0516 22.3445 16.0516 22.2853C16.0516 22.2113 16.0516 22.1373 16.0516 22.0634C16.0516 21.8561 16.0439 21.6489 16.0285 21.4416C16.013 21.2195 16.0207 21.005 16.0516 20.7977C16.0516 20.7237 16.0593 20.6571 16.0747 20.5979C16.1055 20.5387 16.1209 20.4721 16.1209 20.398C16.1209 20.324 16.1055 20.2722 16.0747 20.2426C16.0439 20.213 16.0285 20.176 16.0285 20.1316C16.0285 20.0871 16.0285 20.0132 16.0285 19.9095C16.0439 19.8059 16.067 19.7393 16.0978 19.7097C16.0978 19.5913 16.0978 19.4803 16.0978 19.3766C16.1132 19.2582 16.1209 19.1472 16.1209 19.0436C16.1209 18.8068 16.1132 18.5699 16.0978 18.3331C16.0824 18.0962 16.0747 17.8668 16.0747 17.6447C16.0747 17.5411 16.067 17.4745 16.0516 17.4449C16.0362 17.4153 16.0207 17.3931 16.0054 17.3783C15.99 17.3635 15.9669 17.3561 15.936 17.3561C15.9053 17.3413 15.8821 17.3116 15.8667 17.2673C15.9284 16.616 15.9053 15.9647 15.7974 15.3134C15.6896 14.662 15.6356 14.0032 15.6356 13.3371C15.6356 13.2336 15.651 13.1595 15.6819 13.1152C15.7126 13.0559 15.7512 13.0115 15.7974 12.9819C15.8437 12.9523 15.8821 12.9227 15.913 12.8931C15.9591 12.8487 15.99 12.7895 16.0054 12.7155C16.1286 12.745 16.2365 12.745 16.3288 12.7155ZM25.0246 7.54194C25.0862 7.52713 25.1402 7.50493 25.1864 7.47532C25.2326 7.44571 25.2866 7.43092 25.3482 7.43092C25.3943 7.44571 25.4252 7.47532 25.4406 7.51973C25.4714 7.56414 25.5099 7.60115 25.5561 7.63075C25.6024 7.60115 25.6408 7.57154 25.6717 7.54194C25.7179 7.51233 25.764 7.49013 25.8103 7.47532C25.9644 7.51973 26.0491 7.59374 26.0645 7.69736C26.1416 7.72697 26.2109 7.76397 26.2725 7.80839C26.3341 7.83799 26.4034 7.8602 26.4804 7.87499C26.5113 7.93421 26.5497 7.97862 26.596 8.00821C26.6422 8.03783 26.6961 8.08223 26.7577 8.14144C26.9117 8.17105 27.112 8.25246 27.3585 8.38568C27.6204 8.51891 27.8284 8.62253 27.9824 8.69654C28.1365 8.77055 28.2905 8.84457 28.4446 8.91858C28.5986 8.9926 28.745 9.074 28.8836 9.16283C29.0222 9.23684 29.1609 9.32565 29.2995 9.42927C29.4382 9.51811 29.5845 9.5921 29.7386 9.65131C29.8772 9.81416 30.0544 9.91781 30.2701 9.96214C30.4857 10.0066 30.6782 10.088 30.8477 10.2064C30.9863 10.2805 31.1173 10.3618 31.2405 10.4506C31.3637 10.5247 31.487 10.5987 31.6102 10.6727C31.6565 10.7468 31.7104 10.8059 31.772 10.8503C31.849 10.8947 31.9183 10.9539 31.9799 11.0279C32.288 11.1908 32.4652 11.3166 32.5115 11.4055C32.5577 11.435 32.627 11.4794 32.7194 11.5387C32.8119 11.5979 32.9042 11.6645 32.9967 11.7385C33.0891 11.7977 33.1739 11.8643 33.2509 11.9384C33.3279 11.9976 33.3741 12.0568 33.3895 12.116C33.3279 12.2492 33.2971 12.3602 33.2971 12.449C33.2971 12.5231 33.2663 12.5897 33.2047 12.6489C33.2971 12.7673 33.3433 12.8783 33.3433 12.9819C33.2663 13.1595 33.1353 13.3076 32.9505 13.426C32.9042 13.5444 32.8272 13.6406 32.7194 13.7147C32.627 13.7739 32.5654 13.8626 32.5345 13.9811C32.4113 14.0551 32.3343 14.1143 32.3035 14.1587C32.288 14.2031 32.265 14.2476 32.2341 14.2919C31.9415 14.588 31.6642 14.8471 31.4023 15.069C31.1558 15.2763 30.9247 15.5058 30.7091 15.7574C30.555 15.8314 30.4241 15.9276 30.3162 16.046C30.2085 16.1497 30.1083 16.2681 30.0158 16.4013C29.8926 16.5197 29.7693 16.6382 29.6461 16.7566C29.5383 16.8602 29.4228 16.9638 29.2995 17.0674C29.2687 17.1266 29.2147 17.1784 29.1377 17.2229C29.0761 17.2524 29.0299 17.3042 28.9991 17.3783C28.8296 17.4523 28.691 17.5559 28.5832 17.6892C28.4753 17.8224 28.3444 17.9334 28.1904 18.0222L28.0286 18.2442C27.9824 18.2739 27.913 18.3257 27.8207 18.3997C27.7437 18.4589 27.6589 18.5329 27.5665 18.6217C27.4894 18.6957 27.4201 18.7697 27.3585 18.8437C27.2968 18.9178 27.2584 18.9769 27.2429 19.0214C27.1968 19.0362 27.1197 19.0806 27.0119 19.1546C26.9194 19.2286 26.8194 19.31 26.7115 19.3989C26.619 19.4876 26.5267 19.5765 26.4342 19.6653C26.3572 19.7541 26.3109 19.8134 26.2956 19.8429L26.0645 19.9984C26.0799 20.398 26.0876 20.8051 26.0876 21.2195C26.103 21.6192 26.1107 22.0189 26.1107 22.4186V23.1735L25.9489 23.3734C25.8719 23.3734 25.8103 23.3585 25.764 23.3289C25.7179 23.2994 25.664 23.2845 25.6024 23.2845C25.5407 23.2845 25.4791 23.3142 25.4175 23.3734C25.3713 23.4326 25.325 23.4769 25.2789 23.5066C25.171 23.5214 25.0785 23.551 25.0015 23.5953C24.9399 23.625 24.8706 23.6546 24.7936 23.6842C24.7011 23.6398 24.6087 23.6176 24.5163 23.6176C24.316 23.662 24.2159 23.6694 24.2159 23.6398C24.2313 23.6102 24.2005 23.5953 24.1235 23.5953C24.0002 23.7138 23.9232 23.7731 23.8924 23.7731C23.8308 23.7731 23.7691 23.7805 23.7075 23.7952C23.6613 23.81 23.6074 23.8174 23.5457 23.8174C23.4841 23.699 23.4303 23.5806 23.384 23.4621C23.3532 23.3289 23.2839 23.2031 23.176 23.0847C23.2223 22.9366 23.2146 22.8331 23.1529 22.7739C23.2454 22.611 23.2839 22.426 23.2685 22.2187C23.2531 22.0115 23.2454 21.819 23.2454 21.6415C23.2454 21.5378 23.2454 21.4416 23.2454 21.3528C23.2608 21.2492 23.2685 21.1529 23.2685 21.0642C23.2685 20.8865 23.2531 20.7089 23.2223 20.5313C23.1915 20.3389 23.176 20.1464 23.176 19.9539C23.176 19.5099 23.1915 19.0658 23.2223 18.6217C23.2531 18.1628 23.2685 17.7113 23.2685 17.2673C23.2685 17.0156 23.2531 16.7566 23.2223 16.4901C23.2069 16.2237 23.1992 15.9647 23.1992 15.713C23.1992 15.5502 23.2069 15.4021 23.2223 15.2689C23.2376 15.1208 23.2531 14.9803 23.2685 14.8471C23.2685 14.1661 23.2762 13.5148 23.2916 12.8931C23.3224 12.2566 23.3378 11.6274 23.3378 11.0058C23.3378 10.7985 23.3301 10.6061 23.3147 10.4284C23.3147 10.236 23.3147 10.0362 23.3147 9.82894C23.3147 9.7253 23.3224 9.62166 23.3378 9.51811C23.3532 9.41447 23.3609 9.31085 23.3609 9.20723C23.4071 8.74835 23.4303 8.28947 23.4303 7.83058L23.4071 7.47532C23.4687 7.38651 23.5612 7.3421 23.6845 7.3421C23.8538 7.3421 23.9849 7.39391 24.0772 7.49753C24.1851 7.48273 24.2852 7.46792 24.3776 7.45312C24.4855 7.42352 24.5856 7.40871 24.6781 7.40871C24.8167 7.40871 24.9322 7.45312 25.0246 7.54194ZM26.388 11.0724C26.388 11.1464 26.3802 11.2056 26.3649 11.25C26.3495 11.2796 26.3341 11.3092 26.3186 11.3389C26.3186 11.3832 26.3186 11.435 26.3186 11.4942C26.3341 11.5387 26.3418 11.5905 26.3418 11.6497C26.3418 11.9901 26.3341 12.3306 26.3186 12.671C26.3186 12.9968 26.3186 13.3224 26.3186 13.648L26.2725 14.8248C26.2725 14.8989 26.2802 14.9803 26.2956 15.069C26.3109 15.1579 26.3186 15.2393 26.3186 15.3134C26.3186 15.3873 26.3109 15.4613 26.2956 15.5353C26.2802 15.6094 26.2725 15.6834 26.2725 15.7574C26.2725 15.9498 26.2955 16.1423 26.3418 16.3347C26.4188 16.3051 26.4727 16.2607 26.5035 16.2015C26.5343 16.1274 26.5729 16.0682 26.619 16.0239C26.9734 15.713 27.3045 15.3873 27.6126 15.0469C27.9207 14.7064 28.2366 14.366 28.5601 14.0255C28.8373 13.7442 29.0761 13.5148 29.2764 13.3371C29.4767 13.1595 29.6307 12.9449 29.7386 12.6932C29.4767 12.5305 29.2071 12.3676 28.9298 12.2048C28.6525 12.0271 28.3599 11.8791 28.0518 11.7607C28.0363 11.7311 27.9901 11.6941 27.913 11.6497C27.8514 11.6053 27.7821 11.5682 27.7051 11.5387C27.6281 11.4942 27.551 11.4573 27.474 11.4276C27.397 11.398 27.3431 11.3832 27.3123 11.3832C27.1736 11.2648 27.0273 11.1908 26.8732 11.1611C26.7654 11.1611 26.673 11.1464 26.596 11.1168C26.519 11.0724 26.465 11.0353 26.4342 11.0058L26.388 11.0724ZM37.8567 7.54194C37.9183 7.52713 37.9721 7.50493 38.0184 7.47532C38.0646 7.44571 38.1186 7.43092 38.1802 7.43092C38.2264 7.44571 38.2572 7.47532 38.2726 7.51973C38.3034 7.56414 38.3419 7.60115 38.3881 7.63075C38.4343 7.60115 38.4729 7.57154 38.5037 7.54194C38.5499 7.51233 38.5961 7.49013 38.6423 7.47532C38.7964 7.51973 38.8811 7.59374 38.8964 7.69736C38.9735 7.72697 39.0429 7.76397 39.1045 7.80839C39.1661 7.83799 39.2354 7.8602 39.3124 7.87499C39.3433 7.93421 39.3817 7.97862 39.4279 8.00821C39.4742 8.03783 39.5281 8.08223 39.5897 8.14144C39.7437 8.17105 39.944 8.25246 40.1905 8.38568C40.4524 8.51891 40.6603 8.62253 40.8144 8.69654C40.9684 8.77055 41.1225 8.84457 41.2765 8.91858C41.4306 8.9926 41.5769 9.074 41.7156 9.16283C41.8542 9.23684 41.9929 9.32565 42.1315 9.42927C42.2701 9.51811 42.4166 9.5921 42.5706 9.65131C42.7092 9.81416 42.8863 9.91781 43.1021 9.96214C43.3177 10.0066 43.5102 10.088 43.6797 10.2064C43.8183 10.2805 43.9493 10.3618 44.0725 10.4506C44.1957 10.5247 44.319 10.5987 44.4422 10.6727C44.4884 10.7468 44.5424 10.8059 44.604 10.8503C44.681 10.8947 44.7503 10.9539 44.8119 11.0279C45.12 11.1908 45.2972 11.3166 45.3434 11.4055C45.3897 11.435 45.459 11.4794 45.5514 11.5387C45.6438 11.5979 45.7362 11.6645 45.8287 11.7385C45.9211 11.7977 46.0059 11.8643 46.0829 11.9384C46.1599 11.9976 46.2061 12.0568 46.2215 12.116C46.1599 12.2492 46.1291 12.3602 46.1291 12.449C46.1291 12.5231 46.0983 12.5897 46.0366 12.6489C46.1291 12.7673 46.1754 12.8783 46.1754 12.9819C46.0983 13.1595 45.9673 13.3076 45.7825 13.426C45.7362 13.5444 45.6592 13.6406 45.5514 13.7147C45.459 13.7739 45.3974 13.8626 45.3665 13.9811C45.2433 14.0551 45.1663 14.1143 45.1355 14.1587C45.12 14.2031 45.097 14.2476 45.0662 14.2919C44.7735 14.588 44.4961 14.8471 44.2343 15.069C43.9878 15.2763 43.7567 15.5058 43.5411 15.7574C43.387 15.8314 43.2561 15.9276 43.1482 16.046C43.0404 16.1497 42.9403 16.2681 42.8479 16.4013C42.7247 16.5197 42.6014 16.6382 42.4782 16.7566C42.3703 16.8602 42.2548 16.9638 42.1315 17.0674C42.1007 17.1266 42.0468 17.1784 41.9697 17.2229C41.9081 17.2524 41.862 17.3042 41.8311 17.3783C41.6616 17.4523 41.523 17.5559 41.4152 17.6892C41.3074 17.8224 41.1764 17.9334 41.0224 18.0222L40.8606 18.2442C40.8144 18.2739 40.745 18.3257 40.6526 18.3997C40.5756 18.4589 40.4909 18.5329 40.3985 18.6217C40.3215 18.6957 40.2521 18.7697 40.1905 18.8437C40.1288 18.9178 40.0904 18.9769 40.075 19.0214C40.0288 19.0362 39.9518 19.0806 39.8439 19.1546C39.7514 19.2286 39.6514 19.31 39.5435 19.3989C39.451 19.4876 39.3586 19.5765 39.2662 19.6653C39.1892 19.7541 39.1429 19.8134 39.1275 19.8429L38.8964 19.9984C38.9119 20.398 38.9196 20.8051 38.9196 21.2195C38.935 21.6192 38.9427 22.0189 38.9427 22.4186V23.1735L38.781 23.3734C38.7039 23.3734 38.6423 23.3585 38.5961 23.3289C38.5499 23.2994 38.496 23.2845 38.4343 23.2845C38.3727 23.2845 38.3111 23.3142 38.2495 23.3734C38.2032 23.4326 38.157 23.4769 38.1109 23.5066C38.003 23.5214 37.9105 23.551 37.8335 23.5953C37.7719 23.625 37.7026 23.6546 37.6256 23.6842C37.5331 23.6398 37.4407 23.6176 37.3483 23.6176C37.148 23.662 37.0478 23.6694 37.0478 23.6398C37.0633 23.6102 37.0325 23.5953 36.9555 23.5953C36.8322 23.7138 36.7552 23.7731 36.7244 23.7731C36.6628 23.7731 36.6011 23.7805 36.5395 23.7952C36.4933 23.81 36.4394 23.8174 36.3778 23.8174C36.3162 23.699 36.2623 23.5806 36.216 23.4621C36.1852 23.3289 36.1159 23.2031 36.0081 23.0847C36.0542 22.9366 36.0466 22.8331 35.9849 22.7739C36.0774 22.611 36.1159 22.426 36.1005 22.2187C36.0851 22.0115 36.0774 21.819 36.0774 21.6415C36.0774 21.5378 36.0774 21.4416 36.0774 21.3528C36.0928 21.2492 36.1005 21.1529 36.1005 21.0642C36.1005 20.8865 36.0851 20.7089 36.0542 20.5313C36.0235 20.3389 36.0081 20.1464 36.0081 19.9539C36.0081 19.5099 36.0235 19.0658 36.0542 18.6217C36.0851 18.1628 36.1005 17.7113 36.1005 17.2673C36.1005 17.0156 36.0851 16.7566 36.0542 16.4901C36.0389 16.2237 36.0312 15.9647 36.0312 15.713C36.0312 15.5502 36.0389 15.4021 36.0542 15.2689C36.0697 15.1208 36.0851 14.9803 36.1005 14.8471C36.1005 14.1661 36.1082 13.5148 36.1236 12.8931C36.1544 12.2566 36.1698 11.6274 36.1698 11.0058C36.1698 10.7985 36.1621 10.6061 36.1467 10.4284C36.1467 10.236 36.1467 10.0362 36.1467 9.82894C36.1467 9.7253 36.1544 9.62166 36.1698 9.51811C36.1852 9.41447 36.193 9.31085 36.193 9.20723C36.2391 8.74835 36.2623 8.28947 36.2623 7.83058L36.2391 7.47532C36.3007 7.38651 36.3932 7.3421 36.5164 7.3421C36.6859 7.3421 36.8168 7.39391 36.9092 7.49753C37.0171 7.48273 37.1173 7.46792 37.2096 7.45312C37.3175 7.42352 37.4176 7.40871 37.51 7.40871C37.6487 7.40871 37.7642 7.45312 37.8567 7.54194ZM39.22 11.0724C39.22 11.1464 39.2123 11.2056 39.1968 11.25C39.1815 11.2796 39.1661 11.3092 39.1507 11.3389C39.1507 11.3832 39.1507 11.435 39.1507 11.4942C39.1661 11.5387 39.1738 11.5905 39.1738 11.6497C39.1738 11.9901 39.1661 12.3306 39.1507 12.671C39.1507 12.9968 39.1507 13.3224 39.1507 13.648L39.1045 14.8248C39.1045 14.8989 39.1122 14.9803 39.1275 15.069C39.1429 15.1579 39.1507 15.2393 39.1507 15.3134C39.1507 15.3873 39.1429 15.4613 39.1275 15.5353C39.1122 15.6094 39.1045 15.6834 39.1045 15.7574C39.1045 15.9498 39.1275 16.1423 39.1738 16.3347C39.2508 16.3051 39.3047 16.2607 39.3356 16.2015C39.3663 16.1274 39.4049 16.0682 39.451 16.0239C39.8054 15.713 40.1366 15.3873 40.4447 15.0469C40.7528 14.7064 41.0686 14.366 41.3921 14.0255C41.6693 13.7442 41.9081 13.5148 42.1085 13.3371C42.3087 13.1595 42.4627 12.9449 42.5706 12.6932C42.3087 12.5305 42.039 12.3676 41.7618 12.2048C41.4845 12.0271 41.1918 11.8791 40.8838 11.7607C40.8683 11.7311 40.8221 11.6941 40.745 11.6497C40.6834 11.6053 40.6141 11.5682 40.5371 11.5387C40.4601 11.4942 40.3831 11.4573 40.306 11.4276C40.229 11.398 40.1751 11.3832 40.1443 11.3832C40.0056 11.2648 39.8593 11.1908 39.7053 11.1611C39.5974 11.1611 39.5049 11.1464 39.4279 11.1168C39.3509 11.0724 39.297 11.0353 39.2662 11.0058L39.22 11.0724ZM52.2137 17.8668C52.2446 17.9408 52.3524 18.0962 52.5373 18.3331C52.7375 18.5699 52.9609 18.8289 53.2074 19.1102C53.4539 19.3915 53.6849 19.6653 53.9006 19.9318C54.1317 20.1834 54.2934 20.3684 54.3859 20.4868C54.5552 20.6941 54.717 20.9013 54.8711 21.1085C55.0405 21.301 55.1946 21.5082 55.3332 21.7303L55.7492 22.3964C55.8724 22.5444 55.9803 22.6702 56.0727 22.7739C56.1805 22.8774 56.2652 23.0181 56.3268 23.1957C56.3577 23.3142 56.3731 23.3955 56.3731 23.44C56.3731 23.5436 56.3345 23.6176 56.2575 23.662C56.1343 23.662 56.065 23.6768 56.0496 23.7064C56.0496 23.7508 56.0187 23.7878 55.9571 23.8174C55.8955 23.8471 55.7954 23.8618 55.6567 23.8618C55.5335 23.8766 55.4334 23.884 55.3563 23.884C55.2177 23.884 55.0405 23.8766 54.8249 23.8618C54.6246 23.8618 54.4629 23.884 54.3396 23.9284C54.3088 23.9432 54.2626 23.9655 54.201 23.995C54.1394 24.0247 54.0931 24.0395 54.0623 24.0395C53.939 24.0395 53.8467 24.0173 53.785 23.9729C53.7388 23.9432 53.6695 23.921 53.5771 23.9063C53.4539 23.7731 53.346 23.6398 53.2535 23.5066C53.1765 23.3585 53.0842 23.2105 52.9763 23.0625C52.8684 22.9589 52.7606 22.87 52.6528 22.796C52.545 22.7073 52.4525 22.611 52.3755 22.5074C52.1444 22.1818 51.9056 21.8635 51.6591 21.5526C51.4126 21.2418 51.1585 20.9384 50.8966 20.6423C50.7734 20.4794 50.6424 20.3314 50.5038 20.1982C50.3651 20.065 50.2342 19.9169 50.1109 19.7541C49.9877 19.6061 49.8721 19.4506 49.7644 19.2878C49.6565 19.1102 49.5487 18.94 49.4408 18.7771C49.3484 18.6439 49.2252 18.4737 49.0711 18.2664C48.9171 18.0444 48.7476 17.8298 48.5627 17.6226C48.3779 17.4005 48.193 17.1932 48.0082 17.0008C47.8233 16.8084 47.6693 16.6603 47.5461 16.5568C47.5306 16.4679 47.4921 16.4013 47.4305 16.3569C47.3689 16.2977 47.2996 16.2458 47.2225 16.2015C47.1917 16.1274 47.1609 16.0608 47.1301 16.0016C47.0839 15.9276 47.0608 15.8536 47.0608 15.7796C47.0608 15.676 47.0839 15.5798 47.1301 15.491C47.1609 15.4318 47.184 15.38 47.1994 15.3355C47.1994 15.2763 47.2148 15.2171 47.2457 15.1579C47.3227 14.995 47.4228 14.8397 47.5461 14.6916C47.6847 14.5287 47.7925 14.3585 47.8695 14.181C47.9003 14.1365 47.9158 14.0921 47.9158 14.0477C47.9158 13.9885 47.9312 13.9366 47.9619 13.8923C47.9928 13.7739 48.0544 13.6776 48.1468 13.6036C48.2547 13.5148 48.3394 13.4186 48.4011 13.315C48.4781 13.1966 48.5474 13.0781 48.609 12.9597C48.686 12.8265 48.763 12.6858 48.8401 12.5378C49.0711 12.1678 49.3099 11.8125 49.5564 11.4721C49.8183 11.1168 50.0802 10.7615 50.342 10.4063C50.5423 10.1102 50.7348 9.82894 50.9197 9.56254C51.12 9.28125 51.3203 9 51.5205 8.71874C51.6284 8.58552 51.7439 8.4301 51.8671 8.25246C51.9904 8.07483 52.1213 7.8972 52.2599 7.71957C52.414 7.54194 52.568 7.3791 52.7221 7.23108C52.8761 7.08305 53.0302 6.96463 53.1842 6.87581C53.4153 6.86102 53.5693 6.91282 53.6464 7.03125C53.7234 7.13486 53.839 7.18667 53.993 7.18667C54.1933 7.23108 54.3242 7.29029 54.3859 7.36431C54.4475 7.43831 54.5168 7.51233 54.5938 7.58634C54.8095 7.58634 54.9789 7.62335 55.1021 7.69736C55.2408 7.77137 55.3718 7.88239 55.495 8.03042C55.4488 8.19325 55.3795 8.34128 55.287 8.4745C55.1946 8.59292 55.1098 8.71874 55.0328 8.85197C54.9096 8.91118 54.8172 8.9926 54.7556 9.09621C54.7093 9.19983 54.6323 9.28125 54.5245 9.34046C54.3704 9.5921 54.2087 9.83633 54.0392 10.0732C53.8697 10.2952 53.7004 10.5173 53.5309 10.7393C53.4384 10.8726 53.3383 10.991 53.2305 11.0945C53.138 11.1982 53.0533 11.3092 52.9763 11.4276C52.9454 11.4721 52.9147 11.5239 52.8838 11.5831C52.8684 11.6274 52.8454 11.6719 52.8145 11.7163C52.6297 11.9976 52.4294 12.264 52.2137 12.5156C51.9981 12.7524 51.7978 13.0189 51.613 13.315C51.5514 13.4186 51.4974 13.5296 51.4512 13.648C51.4204 13.7516 51.3742 13.8553 51.3126 13.9589C51.2509 14.0477 51.1585 14.1661 51.0352 14.3142C50.9275 14.4621 50.8196 14.625 50.7118 14.8026C50.6039 14.9655 50.5038 15.1283 50.4113 15.2911C50.3343 15.4392 50.2958 15.565 50.2958 15.6686C50.3113 15.7426 50.4037 15.8906 50.5731 16.1126C50.758 16.3199 50.9582 16.5494 51.1739 16.801C51.4049 17.0378 51.6207 17.2673 51.8209 17.4893C52.0211 17.6966 52.1521 17.8224 52.2137 17.8668ZM53.7388 13.8257C53.8467 14.0477 53.9622 14.2401 54.0855 14.4029C54.1317 14.4621 54.1855 14.514 54.2471 14.5584C54.3088 14.6028 54.355 14.662 54.3859 14.736C54.4166 14.7656 54.4475 14.8322 54.4782 14.9358C54.5091 15.0247 54.5399 15.0913 54.5707 15.1357C54.6169 15.2541 54.7093 15.3873 54.848 15.5353C54.9866 15.6834 55.056 15.8166 55.056 15.935C55.056 16.009 55.0405 16.0905 55.0098 16.1792C54.9789 16.2681 54.9558 16.3495 54.9404 16.4235C54.925 16.5123 54.9173 16.6085 54.9173 16.7121C54.9173 16.801 54.8865 16.8824 54.8249 16.9564C54.7479 17.0305 54.6631 17.0748 54.5707 17.0897C54.4782 17.1044 54.3936 17.1415 54.3166 17.2006C54.2857 17.2303 54.2395 17.2821 54.1778 17.3561C54.1162 17.4301 54.0546 17.5115 53.993 17.6003C53.9314 17.6892 53.8697 17.7779 53.8081 17.8668C53.762 17.9408 53.7388 18 53.7388 18.0444C53.5539 18.0592 53.4307 18.0666 53.3691 18.0666C53.3228 18.0518 53.269 18.0518 53.2074 18.0666C53.1303 17.9926 53.0456 17.9334 52.9531 17.889C52.8761 17.8298 52.7761 17.7779 52.6528 17.7336C52.622 17.6152 52.5527 17.4819 52.4448 17.3339C52.3369 17.171 52.2446 17.0378 52.1676 16.9342L52.0058 16.7344C51.7747 16.4235 51.559 16.1274 51.3588 15.8462C51.1739 15.5502 51.0352 15.2245 50.9428 14.8692C51.2356 14.662 51.4589 14.5066 51.613 14.4029C51.7824 14.2994 51.9595 14.2031 52.1444 14.1143C52.3292 14.0255 52.5064 13.9441 52.6759 13.87C52.8607 13.7813 53.0302 13.6776 53.1842 13.5592C53.3075 13.5592 53.3923 13.5666 53.4384 13.5814C53.4846 13.5962 53.5155 13.611 53.5309 13.6258C53.5463 13.6406 53.5616 13.6702 53.5771 13.7147C53.6079 13.7442 53.6618 13.7813 53.7388 13.8257ZM69.3669 21.5526C69.3514 21.7747 69.3976 21.9449 69.5055 22.0634C69.6287 22.1669 69.7289 22.3002 69.8059 22.463C69.775 22.6702 69.7982 22.8331 69.8752 22.9515C69.8289 23.0403 69.7827 23.1439 69.7366 23.2623C69.6903 23.366 69.621 23.4548 69.5285 23.5287C69.2821 23.6324 69.1357 23.7212 69.0895 23.7952C69.0433 23.8692 68.9509 23.9063 68.8123 23.9063C68.7352 23.9803 68.6505 24.0542 68.5581 24.1283C68.4656 24.2171 68.3809 24.2985 68.3038 24.3726C68.2268 24.3429 68.1729 24.3059 68.1421 24.2615C68.1113 24.2171 68.0651 24.1579 68.0035 24.0839C67.8494 24.0395 67.7108 23.9581 67.5876 23.8397C67.4643 23.736 67.3565 23.6176 67.2641 23.4844C67.1716 23.3363 67.0792 23.1884 66.9868 23.0403C66.9098 22.8774 66.8404 22.7294 66.7788 22.5962C66.5631 22.2113 66.3398 21.8265 66.1087 21.4416C65.893 21.0419 65.6697 20.6497 65.4386 20.2648C65.3153 20.0724 65.1921 19.88 65.0688 19.6874C64.961 19.4803 64.8454 19.2731 64.7222 19.0658C64.6914 19.0362 64.6606 19.0066 64.6298 18.9769C64.599 18.9326 64.5682 18.8882 64.5373 18.8437C64.4296 18.6957 64.3448 18.5329 64.2832 18.3553C64.2369 18.1628 64.1292 18.0074 63.9597 17.889C63.667 17.8594 63.3974 17.9037 63.1509 18.0222C62.9198 18.1258 62.7119 18.2664 62.5271 18.4441C62.5424 18.5477 62.5501 18.6439 62.5501 18.7327C62.5501 18.8216 62.5501 18.9103 62.5501 18.9992C62.5501 19.3397 62.5348 19.6653 62.5039 19.9761C62.4731 20.287 62.4577 20.6126 62.4577 20.9531C62.4577 21.1011 62.4654 21.2566 62.4808 21.4194C62.4962 21.5674 62.5194 21.7155 62.5501 21.8635C62.5039 22.0263 62.4808 22.2039 62.4808 22.3964C62.4808 22.5 62.4885 22.5962 62.5039 22.685C62.5348 22.7739 62.5501 22.87 62.5501 22.9737C62.5501 23.1217 62.4962 23.2253 62.3883 23.2845C62.296 23.3289 62.2651 23.4178 62.296 23.551C62.1111 23.625 61.9339 23.699 61.7645 23.7731C61.5951 23.8471 61.4179 23.8989 61.233 23.9284C61.1559 23.9432 61.0789 23.9432 61.0019 23.9284C60.9249 23.9284 60.8556 23.9432 60.794 23.9729C60.7169 24.0024 60.6553 24.0542 60.6092 24.1283C60.5629 24.2171 60.5013 24.2615 60.4243 24.2615C60.3318 24.2615 60.2779 24.2245 60.2625 24.1505C60.2471 24.0913 60.2163 24.0395 60.17 23.995C60.093 23.9655 60.0314 23.9506 59.9852 23.9506C59.939 23.9506 59.8928 23.9284 59.8466 23.884C59.8619 23.7508 59.8312 23.6546 59.7542 23.5953C59.6771 23.5214 59.6386 23.3808 59.6386 23.1735C59.6386 23.0107 59.6463 22.8553 59.6617 22.7073C59.6926 22.5592 59.7079 22.4037 59.7079 22.241C59.7079 22.1077 59.6849 21.9893 59.6386 21.8857C59.6078 21.7673 59.577 21.6415 59.5461 21.5082C59.5308 21.449 59.5308 21.3898 59.5461 21.3306C59.5616 21.2714 59.5693 21.2121 59.5693 21.1529C59.5693 20.8865 59.5538 20.62 59.5231 20.3536C59.5077 20.0724 59.5 19.7985 59.5 19.5321C59.5 19.4284 59.5 19.3322 59.5 19.2434C59.5 19.1546 59.5077 19.0658 59.5231 18.9769C59.5538 18.8882 59.577 18.8142 59.5924 18.755C59.6232 18.6957 59.6386 18.6217 59.6386 18.5329C59.6386 18.2516 59.6078 17.9778 59.5461 17.7113C59.4845 17.4301 59.4538 17.1563 59.4538 16.8898C59.4538 16.7418 59.4538 16.5937 59.4538 16.4457C59.4691 16.2829 59.4768 16.1274 59.4768 15.9794C59.4768 15.5502 59.4691 15.1283 59.4538 14.7138C59.4384 14.2994 59.4306 13.8848 59.4306 13.4704C59.4306 13.1743 59.4384 12.8857 59.4538 12.6044C59.4691 12.3084 59.4768 12.0123 59.4768 11.7163C59.4768 11.3462 59.4615 10.9836 59.4306 10.6283C59.3998 10.2582 59.3845 9.88076 59.3845 9.49585C59.3845 9.36266 59.3768 9.27384 59.3613 9.22944C59.3459 9.18503 59.3228 9.16283 59.292 9.16283C59.2612 9.14802 59.2227 9.14062 59.1764 9.14062C59.1457 9.12582 59.1148 9.09621 59.084 9.05181C59.084 8.96299 59.1225 8.90378 59.1996 8.87418C59.2766 8.82976 59.3151 8.70394 59.3151 8.49671C59.3151 8.37828 59.2997 8.25986 59.2689 8.14144C59.2535 8.02302 59.2457 7.9046 59.2457 7.78618C59.2457 7.60855 59.2843 7.43092 59.3613 7.25328C59.4384 7.07565 59.5077 6.90542 59.5693 6.7426C59.7542 6.72779 59.8774 6.72779 59.939 6.7426C60.016 6.75739 60.093 6.74999 60.17 6.72039C60.2163 6.88322 60.3164 6.97204 60.4704 6.98684C60.6245 6.98684 60.7632 7.00163 60.8864 7.03125C61.025 7.04605 61.1559 7.08305 61.2792 7.14226C61.4179 7.18668 61.5488 7.20888 61.6721 7.20888C61.7028 7.29769 61.7645 7.36431 61.8569 7.40871C61.9648 7.43831 62.0726 7.46792 62.1804 7.49753C62.3036 7.48273 62.3961 7.43092 62.4577 7.3421C62.5347 7.25328 62.6348 7.20888 62.7581 7.20888C62.8505 7.20888 62.9584 7.27549 63.0816 7.40871C63.2049 7.52713 63.2973 7.62335 63.3589 7.69736C63.4205 7.74178 63.536 7.83799 63.7055 7.98602C63.875 8.13404 64.0599 8.28947 64.2601 8.4523C64.4603 8.60032 64.6452 8.74835 64.8147 8.89637C64.9842 9.0296 65.0919 9.10362 65.1382 9.11842C65.7697 9.7253 66.3552 10.2805 66.8944 10.7837C67.449 11.2722 68.0497 11.7163 68.6967 12.116C68.7121 12.1603 68.7275 12.1974 68.743 12.2269C68.7737 12.2566 68.8046 12.2936 68.8353 12.338C68.8353 12.4564 68.8123 12.5452 68.766 12.6044C68.7198 12.6637 68.6967 12.7376 68.6967 12.8265C68.6967 12.8708 68.7044 12.9153 68.7198 12.9597C68.7507 13.0041 68.766 13.0485 68.766 13.0929C68.7814 13.1521 68.7814 13.2113 68.766 13.2705C68.766 13.315 68.766 13.3668 68.766 13.426C68.766 13.574 68.8123 13.7073 68.9047 13.8257C69.0125 13.9441 69.0664 14.0773 69.0664 14.2253C69.0356 14.3585 68.974 14.44 68.8816 14.4695C68.7891 14.4992 68.7121 14.5362 68.6505 14.5806C68.6197 14.6102 68.5889 14.6472 68.5581 14.6916C68.5426 14.736 68.5196 14.7731 68.4887 14.8026C68.1498 14.9506 67.9034 15.0913 67.7493 15.2245C67.5953 15.3429 67.4335 15.4613 67.2641 15.5798C67.2178 15.6094 67.1408 15.6611 67.033 15.7352C66.9251 15.7944 66.8173 15.861 66.7095 15.935C66.6017 15.9942 66.5015 16.0608 66.4091 16.1348C66.332 16.2089 66.2936 16.2681 66.2936 16.3125C66.2936 16.4161 66.3552 16.5642 66.4784 16.7566C66.617 16.9342 66.7172 17.0748 66.7788 17.1784C66.9482 17.4449 67.1023 17.7113 67.2409 17.9778C67.3795 18.2294 67.5336 18.4811 67.7031 18.7327C68.0112 19.1916 68.2961 19.6579 68.5581 20.1316C68.8353 20.6053 69.1049 21.0789 69.3669 21.5526ZM65.6004 13.2927C65.246 12.8635 64.8609 12.4786 64.445 12.1382C64.0444 11.7829 63.6593 11.4128 63.2896 11.0279L63.0354 10.9836C62.9429 10.8355 62.8352 10.7097 62.7119 10.6061C62.6041 10.4876 62.4885 10.3692 62.3653 10.2508C62.3806 10.4137 62.3883 10.569 62.3883 10.7171C62.3883 10.8652 62.3883 11.0205 62.3883 11.1834C62.3883 11.6571 62.373 12.1234 62.3422 12.5822C62.3267 13.0263 62.319 13.4778 62.319 13.9366C62.319 14.3955 62.3422 14.8322 62.3883 15.2468C62.7119 15.2468 63.0045 15.1579 63.2665 14.9803C63.3743 14.9063 63.4744 14.8322 63.5669 14.7582C63.6593 14.6694 63.7595 14.588 63.8672 14.514C63.9905 14.44 64.1292 14.3511 64.2832 14.2476C64.4527 14.1439 64.6144 14.0403 64.7684 13.9366C64.9379 13.8331 65.0919 13.7294 65.2306 13.6258C65.3846 13.5074 65.5079 13.3964 65.6004 13.2927Z" fill="#333333"/>
<path d="M1.46442 34.1524C1.08315 34.1524 0.77313 34.0155 0.534353 33.7417C0.297502 33.4678 0.179077 33.108 0.179077 32.662C0.179077 32.2142 0.296539 31.8543 0.531464 31.5823C0.768315 31.3085 1.07642 31.1716 1.45576 31.1716C1.69261 31.1716 1.90251 31.2308 2.08543 31.3492C2.27029 31.4658 2.40316 31.6203 2.48404 31.8127H2.4927V30.1003H2.87687V34.1053H2.51293V33.4947H2.50426C2.41761 33.6927 2.28185 33.8518 2.09699 33.9721C1.91213 34.0923 1.70128 34.1524 1.46442 34.1524ZM1.53086 31.4963C1.24202 31.4963 1.00998 31.6027 0.834749 31.8155C0.659518 32.0283 0.571902 32.3105 0.571902 32.662C0.571902 33.0136 0.659518 33.2957 0.834749 33.5085C1.00998 33.7213 1.24202 33.8277 1.53086 33.8277C1.81778 33.8277 2.04981 33.7204 2.22697 33.5058C2.40605 33.2911 2.49559 33.0099 2.49559 32.662C2.49559 32.3142 2.40605 32.0329 2.22697 31.8182C2.04981 31.6036 1.81778 31.4963 1.53086 31.4963ZM6.01566 34.1053V31.2187H6.39693V34.1053H6.01566ZM6.20629 30.6359C6.13697 30.6359 6.07728 30.6128 6.02721 30.5665C5.97715 30.5184 5.95211 30.4601 5.95211 30.3917C5.95211 30.3251 5.97715 30.2686 6.02721 30.2224C6.07728 30.1743 6.13697 30.1502 6.20629 30.1502C6.27755 30.1502 6.3382 30.1743 6.38826 30.2224C6.43833 30.2686 6.46336 30.3251 6.46336 30.3917C6.46336 30.4601 6.43833 30.5184 6.38826 30.5665C6.3382 30.6128 6.27755 30.6359 6.20629 30.6359ZM10.694 33.8083C10.9828 33.8083 11.2159 33.7028 11.3929 33.4918C11.5721 33.2791 11.6616 32.9997 11.6616 32.6537C11.6616 32.3076 11.5721 32.0283 11.3929 31.8155C11.2159 31.6027 10.9828 31.4963 10.694 31.4963C10.4109 31.4963 10.1827 31.6027 10.0094 31.8155C9.83612 32.0265 9.74947 32.3068 9.74947 32.6565C9.74947 33.0043 9.83612 33.2837 10.0094 33.4947C10.1827 33.7038 10.4109 33.8083 10.694 33.8083ZM10.7315 35.1738C10.408 35.1738 10.1317 35.098 9.90253 34.9462C9.67533 34.7945 9.54054 34.603 9.49818 34.3717H9.89385C9.94394 34.516 10.0451 34.6326 10.1972 34.7214C10.3512 34.8121 10.5351 34.8574 10.7488 34.8574C11.0281 34.8574 11.2495 34.7853 11.4132 34.6409C11.5788 34.4984 11.6616 34.3088 11.6616 34.0719V33.4918H11.6529C11.5701 33.6825 11.4363 33.837 11.2515 33.9554C11.0685 34.0738 10.8596 34.133 10.6246 34.133C10.2434 34.133 9.93625 33.9979 9.70326 33.7278C9.47218 33.4576 9.35664 33.0996 9.35664 32.6537C9.35664 32.2059 9.47314 31.8469 9.70614 31.5768C9.93911 31.3066 10.2482 31.1716 10.6333 31.1716C10.8682 31.1716 11.0771 31.2317 11.2601 31.352C11.445 31.4704 11.5826 31.6295 11.6731 31.8294H11.6818V31.2187H12.0458V34.0581C12.0458 34.3949 11.9264 34.665 11.6876 34.8686C11.4507 35.0721 11.1321 35.1738 10.7315 35.1738ZM15.1585 34.1053V31.2187H15.5398V34.1053H15.1585ZM15.3492 30.6359C15.2799 30.6359 15.2202 30.6128 15.1701 30.5665C15.1201 30.5184 15.0951 30.4601 15.0951 30.3917C15.0951 30.3251 15.1201 30.2686 15.1701 30.2224C15.2202 30.1743 15.2799 30.1502 15.3492 30.1502C15.4204 30.1502 15.4811 30.1743 15.5311 30.2224C15.5812 30.2686 15.6062 30.3251 15.6062 30.3917C15.6062 30.4601 15.5812 30.5184 15.5311 30.5665C15.4811 30.6128 15.4204 30.6359 15.3492 30.6359ZM18.8144 30.4971H19.1957V31.2187H19.7878V31.5241H19.1957V33.3781C19.1957 33.5261 19.2274 33.6343 19.291 33.7028C19.3545 33.7694 19.4557 33.8028 19.5943 33.8028C19.7021 33.8028 19.7714 33.7991 19.8022 33.7916V34.1053C19.7483 34.1163 19.6539 34.1219 19.5191 34.1219C19.2669 34.1219 19.0859 34.0664 18.9761 33.9554C18.8683 33.8426 18.8144 33.6556 18.8144 33.3947V31.5241H18.3667V31.2187H18.8144V30.4971ZM23.6371 33.836C23.901 33.836 24.1234 33.7574 24.3044 33.6001C24.4854 33.4429 24.5759 33.2495 24.5759 33.0201V32.7009L23.6862 32.7592C23.4494 32.7739 23.2674 32.8294 23.1403 32.9257C23.0132 33.0201 22.9496 33.1468 22.9496 33.3059C22.9496 33.4632 23.0132 33.5908 23.1403 33.6889C23.2674 33.787 23.433 33.836 23.6371 33.836ZM23.5591 34.1524C23.2626 34.1524 23.0219 34.0748 22.8371 33.9193C22.6541 33.762 22.5627 33.5576 22.5627 33.3059C22.5627 33.0579 22.6551 32.8618 22.8399 32.7176C23.0267 32.5732 23.2934 32.4899 23.64 32.4677L24.5759 32.4122V32.1624C24.5759 31.9533 24.5103 31.7905 24.3794 31.6739C24.2485 31.5555 24.0666 31.4963 23.8335 31.4963C23.6141 31.4963 23.4349 31.5454 23.2963 31.6434C23.1595 31.7415 23.0749 31.8784 23.0421 32.0542H22.6724C22.6936 31.7914 22.8091 31.5786 23.0191 31.4158C23.2308 31.253 23.5052 31.1716 23.8422 31.1716C24.185 31.1716 24.4565 31.2576 24.6568 31.4297C24.857 31.6018 24.9572 31.8349 24.9572 32.1292V34.1053H24.5932V33.5557H24.5845C24.5018 33.7352 24.366 33.8795 24.1773 33.9887C23.9885 34.0979 23.7825 34.1524 23.5591 34.1524ZM28.0497 34.1053V30.1003H28.4309V34.1053H28.0497ZM37.0598 32.6592H35.1649V32.3151H37.0598V32.6592ZM41.0968 33.836C41.3606 33.836 41.583 33.7574 41.7641 33.6001C41.9451 33.4429 42.0356 33.2495 42.0356 33.0201V32.7009L41.1459 32.7592C40.9091 32.7739 40.7271 32.8294 40.6 32.9257C40.4729 33.0201 40.4094 33.1468 40.4094 33.3059C40.4094 33.4632 40.4729 33.5908 40.6 33.6889C40.7271 33.787 40.8927 33.836 41.0968 33.836ZM41.0188 34.1524C40.7223 34.1524 40.4816 34.0748 40.2967 33.9193C40.1138 33.762 40.0223 33.5576 40.0223 33.3059C40.0223 33.0579 40.1148 32.8618 40.2997 32.7176C40.4864 32.5732 40.7531 32.4899 41.0998 32.4677L42.0356 32.4122V32.1624C42.0356 31.9533 41.9701 31.7905 41.8392 31.6739C41.7083 31.5555 41.5263 31.4963 41.2933 31.4963C41.0737 31.4963 40.8947 31.5454 40.756 31.6434C40.6193 31.7415 40.5345 31.8784 40.5018 32.0542H40.1321C40.1533 31.7914 40.2688 31.5786 40.4787 31.4158C40.6905 31.253 40.965 31.1716 41.302 31.1716C41.6447 31.1716 41.9162 31.2576 42.1164 31.4297C42.3167 31.6018 42.4168 31.8349 42.4168 32.1292V34.1053H42.0529V33.5557H42.0443C41.9614 33.7352 41.8257 33.8795 41.637 33.9887C41.4483 34.0979 41.2422 34.1524 41.0188 34.1524ZM46.6706 33.8083C46.9594 33.8083 47.1924 33.7028 47.3696 33.4918C47.5486 33.2791 47.6381 32.9997 47.6381 32.6537C47.6381 32.3076 47.5486 32.0283 47.3696 31.8155C47.1924 31.6027 46.9594 31.4963 46.6706 31.4963C46.3875 31.4963 46.1593 31.6027 45.9861 31.8155C45.8127 32.0265 45.7261 32.3068 45.7261 32.6565C45.7261 33.0043 45.8127 33.2837 45.9861 33.4947C46.1593 33.7038 46.3875 33.8083 46.6706 33.8083ZM46.7081 35.1738C46.3847 35.1738 46.1083 35.098 45.8792 34.9462C45.6519 34.7945 45.5172 34.603 45.4748 34.3717H45.8705C45.9206 34.516 46.0216 34.6326 46.1738 34.7214C46.3278 34.8121 46.5117 34.8574 46.7255 34.8574C47.0047 34.8574 47.2261 34.7853 47.3898 34.6409C47.5554 34.4984 47.6381 34.3088 47.6381 34.0719V33.4918H47.6296C47.5468 33.6825 47.4129 33.837 47.228 33.9554C47.0451 34.0738 46.8362 34.133 46.6013 34.133C46.22 34.133 45.9128 33.9979 45.6798 33.7278C45.4487 33.4576 45.3333 33.0996 45.3333 32.6537C45.3333 32.2059 45.4497 31.8469 45.6828 31.5768C45.9158 31.3066 46.2248 31.1716 46.6099 31.1716C46.8449 31.1716 47.0538 31.2317 47.2367 31.352C47.4215 31.4704 47.5593 31.6295 47.6498 31.8294H47.6585V31.2187H48.0224V34.0581C48.0224 34.3949 47.903 34.665 47.6642 34.8686C47.4274 35.0721 47.1086 35.1738 46.7081 35.1738ZM52.2963 31.4936C52.0286 31.4936 51.8082 31.5833 51.6349 31.7627C51.4635 31.9403 51.37 32.1726 51.3547 32.4594H53.2091C53.2052 32.1726 53.1195 31.9403 52.9519 31.7627C52.7844 31.5833 52.5659 31.4936 52.2963 31.4936ZM53.1859 33.2865H53.5643C53.5181 33.54 53.3814 33.7481 53.1542 33.911C52.9289 34.0719 52.6525 34.1524 52.3252 34.1524C51.9035 34.1524 51.5704 34.0202 51.3258 33.7556C51.0813 33.4891 50.959 33.1274 50.959 32.6704C50.959 32.2207 51.0813 31.859 51.3258 31.5851C51.5704 31.3094 51.8957 31.1716 52.3021 31.1716C52.6988 31.1716 53.0145 31.3011 53.2495 31.5602C53.4844 31.8192 53.6019 32.1643 53.6019 32.5953V32.7508H51.3518V32.7731C51.3518 33.0987 51.4403 33.3568 51.6175 33.5474C51.7947 33.7362 52.0335 33.8305 52.3339 33.8305C52.5553 33.8305 52.742 33.7805 52.8942 33.6807C53.0463 33.5807 53.1436 33.4493 53.1859 33.2865ZM56.5385 34.1053V31.2187H56.8995V31.7516H56.9082C56.9872 31.5722 57.1123 31.4307 57.2837 31.327C57.457 31.2234 57.6621 31.1716 57.899 31.1716C58.2282 31.1716 58.4872 31.2669 58.6759 31.4575C58.8665 31.648 58.9619 31.9071 58.9619 32.2346V34.1053H58.5806V32.2929C58.5806 32.0412 58.5112 31.846 58.3726 31.7073C58.236 31.5685 58.0414 31.4991 57.7891 31.4991C57.5292 31.4991 57.3193 31.5814 57.1595 31.7461C56.9996 31.9108 56.9198 32.1273 56.9198 32.3956V34.1053H56.5385ZM64.4749 32.1319H64.0995C64.0571 31.945 63.9599 31.7924 63.8078 31.6739C63.6575 31.5555 63.4688 31.4963 63.2415 31.4963C62.9469 31.4963 62.7111 31.6018 62.534 31.8127C62.3587 32.0236 62.2711 32.3068 62.2711 32.662C62.2711 33.021 62.3596 33.305 62.5368 33.5141C62.714 33.7232 62.9498 33.8277 63.2445 33.8277C63.4678 33.8277 63.6546 33.7722 63.8048 33.6611C63.9569 33.5502 64.0551 33.4003 64.0995 33.2115H64.4778C64.4355 33.4891 64.3007 33.7158 64.0735 33.8915C63.8482 34.0655 63.5708 34.1524 63.2415 34.1524C62.8295 34.1524 62.4992 34.0192 62.2509 33.7527C62.0044 33.4845 61.8812 33.1209 61.8812 32.662C61.8812 32.2086 62.0044 31.8469 62.2509 31.5768C62.4992 31.3066 62.8285 31.1716 63.2387 31.1716C63.5795 31.1716 63.8607 31.2641 64.0821 31.4491C64.3054 31.6342 64.4365 31.8617 64.4749 32.1319ZM67.5935 35.1489C67.5242 35.1489 67.4607 35.1433 67.4029 35.1322V34.8185C67.4491 34.8296 67.5098 34.8352 67.5849 34.8352C67.7215 34.8352 67.8314 34.7982 67.9141 34.7242C67.9989 34.6502 68.0749 34.5225 68.1423 34.3412L68.2232 34.1247L67.0967 31.2187H67.5069L68.4196 33.7389H68.4282L69.3439 31.2187H69.7454L68.564 34.2801C68.4331 34.6187 68.3002 34.8482 68.1654 34.9684C68.0306 35.0887 67.8399 35.1489 67.5935 35.1489Z" fill="#EB5757"/>
<path d="M19.356 8.89637C19.4484 8.82236 19.4946 8.71874 19.4946 8.58552C19.4946 8.4671 19.4021 8.34868 19.2173 8.23026C19.0324 8.11184 18.8861 8.01562 18.7782 7.9416C18.6859 7.8972 18.6011 7.83058 18.5241 7.74178C18.4625 7.63815 18.3931 7.54194 18.3161 7.45312C18.2545 7.3495 18.1774 7.26068 18.085 7.18668C18.008 7.11266 17.9079 7.07565 17.7846 7.07565C17.6614 7.07565 17.569 7.11266 17.5074 7.18668C17.4458 7.26068 17.3533 7.3051 17.2301 7.31989C16.9682 7.52713 16.714 7.74918 16.4676 7.98602C16.2365 8.22286 15.99 8.4523 15.7281 8.67434C15.5894 8.80757 15.4662 8.94078 15.3584 9.074C15.2505 9.19243 15.1196 9.34786 14.9655 9.54028C14.9348 9.58471 14.8962 9.61427 14.85 9.62914C14.8038 9.64392 14.7807 9.68096 14.7807 9.74008C14.8731 9.87337 14.9578 10.0066 15.0348 10.1398C15.1119 10.2582 15.2891 10.3471 15.5663 10.4063C15.6433 10.4803 15.7204 10.5247 15.7974 10.5395C15.8898 10.5395 15.99 10.5469 16.0978 10.5616C16.2365 10.5913 16.3982 10.6505 16.5831 10.7393C16.7833 10.8134 16.945 10.8503 17.0683 10.8503C17.1454 10.8503 17.2378 10.8134 17.3456 10.7393C17.4689 10.6653 17.5844 10.5839 17.6923 10.495C17.8155 10.3915 17.9309 10.2952 18.0388 10.2064L18.293 9.96214C18.4471 9.82894 18.578 9.69574 18.6859 9.56254C18.8091 9.41447 18.9477 9.27384 19.1017 9.14062C19.1788 9.037 19.2635 8.95558 19.356 8.89637Z" fill="#EB5757"/>
</svg>
